<?xml version="1.0" encoding="UTF-8" standalone="no"?>
<svg
  xmlns:dc="http://purl.org/dc/elements/1.1/"
  xmlns:cc="http://creativecommons.org/ns#"
  xmlns:rdf="http://www.w3.org/1999/02/22-rdf-syntax-ns#"
  xmlns:svg="http://www.w3.org/2000/svg"
  xmlns="http://www.w3.org/2000/svg"
  viewBox="0 0 1177.1733 110.92"
  height="110.92"
  width="1177.1733"
  xml:space="preserve"
  id="svg2"
  version="1.1"><metadata
     id="metadata8"><rdf:RDF><cc:Work
         rdf:about=""><dc:format>image/svg+xml</dc:format><dc:type
           rdf:resource="http://purl.org/dc/dcmitype/StillImage" /></cc:Work></rdf:RDF></metadata><defs
     id="defs6" /><g
     transform="matrix(1.3333333,0,0,-1.3333333,0,110.92)"
     id="g10"><g
       transform="scale(0.1)"
       id="g12"><path
         id="path14"
         style="fill:#ffffff;fill-opacity:1;fill-rule:nonzero;stroke:none"
         d="m 534.281,371.434 76,-167.403 C 653.203,304.836 826.359,726.684 860.57,810.055 H 706.055 Z M 609.988,154.477 511.766,370.84 691.898,830.805 h 199.606 l -5.867,-14.313 C 875.328,791.352 633.023,200.547 619.723,173.941 Z M 363.633,20.75 H 524.727 C 480.973,118.672 232.41,674.965 221.375,700.051 190.082,773.074 147.117,810.055 93.6484,810.055 63.4219,810.055 37.7969,797.734 25.9492,790.934 136.961,536.891 338.047,77.2813 363.633,20.75 Z M 556.727,0 h -205.86 l -2.945,5.40234 C 341.254,17.6211 37.9258,711.715 3.35547,790.82 L 0,798.504 l 6.80859,4.891 c 1.5586,1.121 38.67971,27.41 86.83981,27.41 62.5466,0 111.9296,-41.207 146.7576,-122.489 C 252.391,681.086 547.223,21.2695 550.195,14.6094 L 556.727,0" /><path
         id="path16"
         style="fill:#ffffff;fill-opacity:1;fill-rule:nonzero;stroke:none"
         d="m 1253.52,810.055 c -1.78,-17.715 -2.59,-60.516 24.83,-94.145 26.45,-32.441 72.4,-48.887 136.58,-48.887 h 670.2 v 143.032 z m 852.36,-163.782 h -690.95 c -70.84,0 -122.25,19.082 -152.81,56.704 -41.51,51.105 -28.35,116.804 -27.77,119.582 l 1.73,8.246 h 869.8 z M 1607.9,20.75 h 122 v 465.059 h -122 z M 1750.65,0 h -163.5 v 506.555 h 163.5 V 0" /><path
         id="path18"
         style="fill:#ffffff;fill-opacity:1;fill-rule:nonzero;stroke:none"
         d="m 2811.35,20.75 h 201.94 L 2709.8,324.242 h -1.3 l 0.28,1.02 -2.02,2.019 3.51,3.512 1.03,3.82 -2.8,10.375 h 93.02 c 154.53,0 224.92,120.043 224.92,231.575 0,61.347 -20.26,118.457 -57.06,160.789 -41.33,47.566 -100.52,72.703 -171.19,72.703 h -602.95 c -1.8,-17.77 -2.66,-60.762 24.8,-94.442 26.3,-32.238 71.88,-48.59 135.51,-48.59 h 452.61 c 30.24,0 55.69,-9.593 73.58,-27.742 15.97,-16.207 24.77,-38.133 24.77,-61.73 0,-45.59 -33.78,-91.742 -98.35,-91.742 H 2196.6 V 20.75 h 120.9 v 324.238 h 169.6 z M 3063.38,0 H 2802.75 L 2478.51,324.242 H 2338.25 V 0 h -162.4 v 506.555 h 632.31 c 53.32,0 77.6,36.804 77.6,70.996 0,34.207 -23.99,68.722 -77.6,68.722 h -452.61 c -70.28,0 -121.33,18.981 -151.74,56.411 -41.53,51.144 -28.32,117.089 -27.74,119.875 l 1.73,8.246 h 620.39 c 76.85,0 141.46,-27.606 186.85,-79.836 40.08,-46.117 62.15,-108.059 62.15,-174.406 0,-65.915 -21.81,-127.418 -61.4,-173.184 -44.8,-51.77 -108.52,-79.137 -184.27,-79.137 h -62.38 L 3063.38,0" /><path
         id="path20"
         style="fill:#ffffff;fill-opacity:1;fill-rule:nonzero;stroke:none"
         d="m 3951.58,20.75 h 154.66 l -322.4,789.305 H 3464.68 L 3142.28,20.75 h 413.92 c 64.18,0 110.13,16.4453 136.58,48.8867 27.42,33.6293 26.61,76.4143 24.83,94.1443 h -362.8 l 206.61,503.242 h 124.57 l 2.65,-6.429 z M 4137.14,0 h -199.46 l -2.65,6.42969 -262.94,639.84331 h -96.76 L 3385.76,184.531 h 349.29 l 1.73,-8.246 c 0.58,-2.777 13.74,-68.476 -27.77,-119.5858 C 3678.45,19.0781 3627.03,0 3556.2,0 h -444.81 l 339.35,830.805 h 347.04 L 4137.14,0" /><path
         id="path22"
         style="fill:#ffffff;fill-opacity:1;fill-rule:nonzero;stroke:none"
         d="m 4220.58,20.75 h 121.99 v 610.023 l 18.3,-21.66 c 21.07,-24.937 47.84,-56.453 76.42,-90.129 61.62,-72.566 131.46,-154.812 171.53,-203.199 32.14,-37.648 130.09,-148.195 160.85,-182.879 16.77,31.856 51.12,127.59 -52.85,251.481 -30.5,35.863 -62.71,72.453 -99.99,114.812 -64.34,73.11 -144.28,163.938 -268.69,310.856 H 4221.66 Z M 4363.32,0 H 4199.8 l 1.14,830.805 h 156.81 l 3.11,-3.676 c 126.07,-148.922 206.73,-240.574 271.55,-314.219 37.35,-42.433 69.6,-79.082 100.26,-115.137 70.98,-84.57 80.2,-158.089 75.46,-204.882 -5.21,-51.336 -27.57,-82.243 -28.52,-83.536 l -7.6,-10.3277 -8.51,9.5857 c -1.33,1.489 -132.21,148.883 -170.56,193.821 -40.09,48.406 -109.88,130.601 -171.46,203.125 -20.86,24.562 -40.75,47.98 -58.16,68.539 z m 567.7,20.75 h 120.91 l 1.08,789.305 H 4931.02 Z M 5072.65,0 h -162.38 v 830.805 h 163.52 L 5072.65,0" /><path
         id="path24"
         style="fill:#ffffff;fill-opacity:1;fill-rule:nonzero;stroke:none"
         d="m 5166.67,667.023 h 527.49 c 64.17,0 110.12,16.446 136.57,48.887 27.42,33.629 26.61,76.414 24.83,94.145 h -462.4 c -164.82,0 -214.24,-105.918 -226.49,-143.032 z m 527.49,-20.75 h -553.83 l 2.52,12.434 c 0.35,1.723 37.35,172.098 250.31,172.098 h 479.85 l 1.72,-8.246 c 0.58,-2.77 13.74,-68.477 -27.77,-119.582 -30.56,-37.622 -81.97,-56.704 -152.8,-56.704 z M 5163.39,20.75 h 607.12 c 154.54,0 224.93,120.043 224.93,231.57 0,61.352 -20.26,118.45 -57.06,160.793 -41.33,47.555 -100.52,72.696 -171.18,72.696 h -603.03 c -1.89,-17.368 -2.97,-59.079 23.67,-92.063 26.14,-32.351 72.13,-48.758 136.7,-48.758 h 452.61 c 30.25,0 55.69,-9.59 73.58,-27.738 15.98,-16.211 24.78,-38.133 24.78,-61.727 0,-45.589 -33.78,-91.742 -98.36,-91.742 H 5163.39 Z M 5770.51,0 h -627.87 v 184.531 h 634.51 c 24.06,0 44.23,7.719 58.31,22.328 12.27,12.719 19.3,30.457 19.3,48.664 0,34.204 -23.99,68.719 -77.61,68.719 h -452.61 c -71.27,0 -122.74,19.059 -152.99,56.653 -40.56,50.425 -27.06,114.793 -26.45,117.507 l 1.78,8.153 h 620.32 c 76.85,0 141.46,-27.602 186.84,-79.832 40.08,-46.118 62.15,-108.055 62.15,-174.403 0,-65.914 -21.81,-127.414 -61.41,-173.1833 C 5909.99,27.3672 5846.27,0 5770.51,0" /><path
         id="path26"
         style="fill:#ffffff;fill-opacity:1;fill-rule:nonzero;stroke:none"
         d="m 6108.34,667.023 h 670.28 c 63.4,0 108.88,16.352 135.22,48.602 27.77,34.016 26.89,77.594 25.07,95.531 h -604.05 c -164.97,0 -214.32,-106.851 -226.52,-144.133 z m 670.28,-20.75 h -696.56 l 2.49,12.422 c 0.36,1.735 37.34,173.211 250.31,173.211 h 621.51 l 1.72,-8.261 c 0.58,-2.817 13.85,-69.465 -28.03,-120.969 -30.45,-37.422 -81.4,-56.403 -151.44,-56.403 z M 6106.21,20.75 h 120.9 v 324.238 h 409.86 c 64.57,0 110.56,16.407 136.7,48.758 26.64,32.977 25.56,74.684 23.67,92.063 H 6106.21 Z M 6247.86,0 h -162.4 v 506.555 h 729.17 l 1.79,-8.153 c 0.6,-2.714 14.11,-67.082 -26.46,-117.507 -30.24,-37.594 -81.72,-56.653 -152.99,-56.653 H 6247.86 V 0" /><path
         id="path28"
         style="fill:#ffffff;fill-opacity:1;fill-rule:nonzero;stroke:none"
         d="m 7019.25,669.211 c 93.95,-0.164 635.87,-1.082 669,-1.082 64.11,0 109.91,16.414 136.13,48.785 27.27,33.656 26.14,76.547 24.22,94.242 h -603 c -82.62,0 -146.45,-26.117 -189.73,-77.64 -20.98,-24.969 -31.69,-49.911 -36.62,-64.305 z m 669,-21.828 c -36.11,0 -676.35,1.086 -682.81,1.097 l -12.68,0.024 2.53,12.426 c 0.36,1.711 37.36,170.976 250.31,170.976 h 620.33 l 1.77,-8.179 c 0.6,-2.778 14.22,-68.551 -27.05,-119.692 -30.33,-37.594 -81.61,-56.652 -152.4,-56.652 z M 7015.83,485.809 V 246.09 c 0,-103.442 60.18,-224.2345 229.77,-224.2345 h 602.69 V 164.891 h -612.65 c -67.2,0 -97.8,46.675 -97.8,90.047 v 87.464 l 9.99,0.371 c 21.11,0.77 156.1,0.473 275.19,0.215 49.38,-0.105 94.32,-0.207 123.58,-0.207 64.18,0 110.12,16.446 136.57,48.887 27.43,33.621 26.62,76.41 24.83,94.141 z M 7869.04,1.10547 H 7245.6 c -184.9,0 -250.51,131.97253 -250.51,244.98453 v 260.465 h 730.36 l 1.72,-8.246 c 0.58,-2.77 13.75,-68.465 -27.77,-119.575 -30.56,-37.621 -81.97,-56.703 -152.8,-56.703 -29.27,0 -74.23,0.102 -123.62,0.211 -101.44,0.215 -225.12,0.485 -264.39,0 v -67.304 c 0,-34.497 23.82,-69.301 77.05,-69.301 h 633.4 V 1.10547" /><path
         id="path30"
         style="fill:#ffffff;fill-opacity:1;fill-rule:nonzero;stroke:none"
         d="m 8576.72,20.75 h 201.94 l -303.49,303.492 h -1.3 l 0.28,1.02 -2.02,2.019 3.51,3.512 1.03,3.82 -2.8,10.375 h 93.02 c 154.54,0 224.92,120.043 224.92,231.575 0,61.347 -20.26,118.457 -57.06,160.789 -41.33,47.566 -100.52,72.703 -171.18,72.703 h -602.95 c -1.81,-17.77 -2.67,-60.762 24.8,-94.442 26.29,-32.238 71.87,-48.59 135.5,-48.59 h 452.61 c 30.25,0 55.69,-9.593 73.58,-27.742 15.97,-16.207 24.77,-38.133 24.77,-61.73 0,-45.59 -33.78,-91.742 -98.35,-91.742 H 7961.97 V 20.75 h 120.9 v 324.238 h 169.61 z M 8828.75,0 H 8568.13 L 8243.89,324.242 H 8103.62 V 0 h -162.4 v 506.555 h 632.31 c 53.32,0 77.61,36.804 77.61,70.996 0,34.207 -24,68.722 -77.61,68.722 h -452.61 c -70.28,0 -121.33,18.981 -151.73,56.411 -41.54,51.144 -28.33,117.089 -27.74,119.875 l 1.72,8.246 h 620.4 c 76.85,0 141.46,-27.606 186.85,-79.836 40.07,-46.117 62.14,-108.059 62.14,-174.406 0,-65.915 -21.81,-127.418 -61.4,-173.184 -44.8,-51.77 -108.51,-79.137 -184.27,-79.137 h -62.38 L 8828.75,0" /></g></g></svg>