<?xml version="1.0" encoding="UTF-8" standalone="no"?>
<svg
  xmlns:dc="http://purl.org/dc/elements/1.1/"
  xmlns:cc="http://creativecommons.org/ns#"
  xmlns:rdf="http://www.w3.org/1999/02/22-rdf-syntax-ns#"
  xmlns:svg="http://www.w3.org/2000/svg"
  xmlns="http://www.w3.org/2000/svg"
  viewBox="0 0 774.03998 626.35999"
  height="626.35999"
  width="774.03998"
  xml:space="preserve"
  id="svg2"
  version="1.1"><metadata
     id="metadata8"><rdf:RDF><cc:Work
         rdf:about=""><dc:format>image/svg+xml</dc:format><dc:type
           rdf:resource="http://purl.org/dc/dcmitype/StillImage" /></cc:Work></rdf:RDF></metadata><defs
     id="defs6" /><g
     transform="matrix(1.3333333,0,0,-1.3333333,0,626.36)"
     id="g10"><g
       transform="scale(0.1)"
       id="g12"><path
         id="path14"
         style="fill:#ef3320;fill-opacity:1;fill-rule:nonzero;stroke:none"
         d="m 981.242,4697.72 v -742.65 h 742.648 v 742.65 H 981.242" /><path
         id="path16"
         style="fill:#e9e9e9;fill-opacity:1;fill-rule:nonzero;stroke:none"
         d="m 2466.54,3955.07 h -742.65 v -1485.3 h 742.65 v 742.65 742.65" /><path
         id="path18"
         style="fill:#e9e9e9;fill-opacity:1;fill-rule:nonzero;stroke:none"
         d="m 2466.54,1727.12 h 742.65 v 742.65 h -742.65 v -742.65" /><path
         id="path20"
         style="fill:#e9e9e9;fill-opacity:1;fill-rule:nonzero;stroke:none"
         d="M 4081.42,4697.72 3209.19,2469.77 h 742.65 l 872.23,2227.95 h -742.65" /><path
         id="path22"
         style="fill:#e9e9e9;fill-opacity:1;fill-rule:nonzero;stroke:none"
         d="M 1236.13,4.80078 V 573.059 h -200.08 v 72.031 h 480.2 V 573.059 H 1316.17 V 4.80078 h -80.04" /><path
         id="path24"
         style="fill:#e9e9e9;fill-opacity:1;fill-rule:nonzero;stroke:none"
         d="m 1716.34,323.34 h 200.09 c 43.21,0 74.02,8.012 92.43,24.012 18.41,16.007 27.62,42.418 27.62,79.238 v 49.621 c 0,34.68 -9.21,59.488 -27.62,74.43 -18.41,14.941 -49.22,22.418 -92.43,22.418 h -200.09 z m 0,-318.53922 H 1636.3 V 645.09 h 280.92 c 66.7,0 116.58,-14.008 149.67,-42.031 33.07,-28 49.62,-70.297 49.62,-126.848 V 426.59 c 0,-50.692 -12.94,-90.18 -38.82,-118.449 -25.89,-28.289 -65.23,-45.891 -118.05,-52.832 L 2123.71,4.80078 h -91.24 L 1870,252.922 H 1716.34 V 4.80078" /><path
         id="path26"
         style="fill:#e9e9e9;fill-opacity:1;fill-rule:nonzero;stroke:none"
         d="M 2627.13,260.91 2515.89,565.051 2403.83,260.91 Z M 2720.78,4.80078 2653.55,188.891 H 2377.43 L 2310.19,4.80078 h -81.63 L 2475.07,645.09 h 84.03 L 2805.62,4.80078 h -84.84" /><path
         id="path28"
         style="fill:#e9e9e9;fill-opacity:1;fill-rule:nonzero;stroke:none"
         d="M 3282.62,4.80078 2992.89,537.84 V 4.80078 h -76.03 V 645.09 h 109.65 L 3321.04,101.641 V 645.09 h 76.04 V 4.80078 h -114.46" /><path
         id="path30"
         style="fill:#e9e9e9;fill-opacity:1;fill-rule:nonzero;stroke:none"
         d="m 3805.26,0 c -61.91,0 -114.33,11.2109 -157.28,33.6211 -42.95,22.3984 -75.9,65.0898 -98.84,128.0589 l 74.44,29.601 c 16.53,-45.351 38.54,-76.57 66.03,-93.6287 27.47,-17.0937 67.62,-25.6132 120.45,-25.6132 46.41,0 84.03,8.5195 112.84,25.6132 28.81,17.0587 43.23,45.3397 43.23,84.8277 0,36.282 -12.69,61.75 -38.03,76.442 -25.34,14.66 -70.82,27.07 -136.45,37.207 -82.17,12.269 -139.67,31.48 -172.48,57.633 -32.81,26.129 -49.22,65.629 -49.22,118.449 0,54.418 19.73,97.371 59.23,128.859 39.47,31.469 93.37,47.219 161.66,47.219 61.89,0 112.86,-10.547 152.88,-31.617 40.01,-21.07 70.15,-59.102 90.43,-114.051 l -74.43,-29.601 c -13.88,38.41 -35.49,65.222 -64.82,80.429 -29.35,15.199 -65.64,22.813 -108.86,22.813 -40.55,0 -73.23,-7.211 -98.03,-21.614 -24.82,-14.406 -37.22,-39.496 -37.22,-75.238 0,-36.289 13.33,-61.359 40.01,-75.23 26.67,-13.879 74.7,-25.891 144.06,-36.008 77.91,-11.75 132.59,-30.422 164.08,-56.031 31.47,-25.621 47.22,-64.309 47.22,-116.051 0,-60.828 -21.48,-108.7306 -64.43,-143.6681 C 3938.78,17.4688 3879.95,0 3805.26,0" /><path
         id="path32"
         style="fill:#e9e9e9;fill-opacity:1;fill-rule:nonzero;stroke:none"
         d="M 4197.42,4.80078 V 645.09 h 416.19 V 573.059 H 4277.46 V 324.941 h 280.12 V 252.922 H 4277.46 V 4.80078 h -80.04" /><path
         id="path34"
         style="fill:#e9e9e9;fill-opacity:1;fill-rule:nonzero;stroke:none"
         d="M 4757.66,4.80078 V 645.09 h 416.19 V 573.059 H 4837.7 v -184.09 h 296.12 V 316.941 H 4837.7 V 76.8398 h 336.15 V 4.80078 h -416.19" /><path
         id="path36"
         style="fill:#e9e9e9;fill-opacity:1;fill-rule:nonzero;stroke:none"
         d="m 5397.94,323.34 h 200.09 c 43.21,0 74.02,8.012 92.43,24.012 18.41,16.007 27.62,42.418 27.62,79.238 v 49.621 c 0,34.68 -9.21,59.488 -27.62,74.43 -18.41,14.941 -49.22,22.418 -92.43,22.418 h -200.09 z m 0,-318.53922 H 5317.9 V 645.09 h 280.92 c 66.7,0 116.59,-14.008 149.68,-42.031 33.06,-28 49.61,-70.297 49.61,-126.848 V 426.59 c 0,-50.692 -12.93,-90.18 -38.81,-118.449 -25.89,-28.289 -65.24,-45.891 -118.06,-52.832 L 5805.32,4.80078 h -91.25 L 5551.6,252.922 H 5397.94 V 4.80078" /><path
         id="path38"
         style="fill:#e9e9e9;fill-opacity:1;fill-rule:nonzero;stroke:none"
         d="M 448.012,4.80078 H 180.188 L 0,992.141 H 215.984 L 344.336,168.949 704.715,992.141 H 905.887 L 448.012,4.80078" /></g></g></svg>